<svg width="43" height="54" viewBox="0 0 43 54" fill="none" xmlns="http://www.w3.org/2000/svg">
<path d="M39.2812 21.3251H25.9453V4.2492C25.9453 2.15385 24.6182 0.454559 22.9818 0.454559H20.0182C18.3818 0.454559 17.0547 2.15385 17.0547 4.2492V21.3251H3.71885C2.08243 21.3251 0.755325 23.0244 0.755325 25.1197V28.9144C0.755325 31.0097 2.08243 32.709 3.71885 32.709H17.0547V49.7849C17.0547 51.8803 18.3818 53.5796 20.0182 53.5796H22.9818C24.6182 53.5796 25.9453 51.8803 25.9453 49.7849V32.709H39.2812C40.9176 32.709 42.2447 31.0097 42.2447 28.9144V25.1197C42.2447 23.0244 40.9176 21.3251 39.2812 21.3251Z" fill="#FF7E67" fill-opacity="0.9"/>
</svg>
